<svg xmlns="http://www.w3.org/2000/svg" width="1040" height="700" viewBox="90 24 1040 700">
  <defs>
    <radialGradient id="density" cx="50%" cy="50%" r="50%">
      <stop offset="0%" stop-color="#003fc8" stop-opacity="0.75"/>
      <stop offset="35%" stop-color="#1477e6" stop-opacity="0.34"/>
      <stop offset="70%" stop-color="#4ea3ff" stop-opacity="0.12"/>
      <stop offset="100%" stop-color="#4ea3ff" stop-opacity="0"/>
    </radialGradient>
    <filter id="softBlur" x="-20%" y="-20%" width="140%" height="140%">
      <feGaussianBlur stdDeviation="7"/>
    </filter>
    <style>
      .boundary{fill:none;stroke:#cc0000;stroke-width:10;stroke-linecap:round;stroke-linejoin:round;}
      .axis{stroke:#111;stroke-width:2.2;stroke-dasharray:10 9;fill:none;opacity:.78;}
      .vertex{fill:#111;stroke:#111;stroke-width:2;}
      .pt{fill:#1976e9;opacity:.72;}
      .label{font-family:Arial, Helvetica, sans-serif;font-size:38px;font-weight:700;fill:#111;}
      .coord{font-family:Arial, Helvetica, sans-serif;font-size:27px;fill:#111;}
      .ellipsis{font-family:Arial, Helvetica, sans-serif;font-size:48px;font-weight:700;fill:#111;}
    </style>
  </defs>

  <!-- Projected high-dimensional simplex boundary -->
  <path class="boundary" d="M 605 98
                             C 755 92, 905 168, 995 306
                             C 1075 430, 1026 550, 844 613
                             C 645 681, 386 648, 267 558
                             C 154 473, 168 310, 316 202
                             C 407 136, 502 105, 605 98 Z"/>

  <!-- Vertices -->
  <circle class="vertex" cx="605" cy="98" r="13"/>
  <circle class="vertex" cx="316" cy="202" r="13"/>
  <circle class="vertex" cx="267" cy="558" r="13"/>
  <circle class="vertex" cx="995" cy="306" r="13"/>

  <!-- Dashed rays to the mean / center -->
  <line class="axis" x1="605" y1="98" x2="593" y2="383"/>
  <line class="axis" x1="316" y1="202" x2="593" y2="383"/>
  <line class="axis" x1="267" y1="558" x2="593" y2="383"/>
  <line class="axis" x1="995" y1="306" x2="593" y2="383"/>

  <!-- Soft density cloud -->
  <ellipse cx="593" cy="383" rx="226" ry="127" fill="url(#density)" filter="url(#softBlur)"/>
  <ellipse cx="593" cy="383" rx="150" ry="84" fill="#0067df" opacity="0.18" filter="url(#softBlur)"/>
  <ellipse cx="593" cy="383" rx="82" ry="47" fill="#0050d8" opacity="0.34" filter="url(#softBlur)"/>
  <circle cx="593" cy="383" r="7" fill="#ffcc00" opacity="0.95"/>

  <!-- Dirichlet samples, drawn as projected points inside the simplex -->
  <g id="samples">
    <circle class="pt" cx="434.9" cy="225.1" r="2.45" opacity="0.45"/>
    <circle class="pt" cx="525.6" cy="471.7" r="3.87" opacity="0.49"/>
    <circle class="pt" cx="513.2" cy="385.3" r="4.11" opacity="0.65"/>
    <circle class="pt" cx="674.8" cy="286.2" r="3.70" opacity="0.68"/>
    <circle class="pt" cx="624.2" cy="473.9" r="2.78" opacity="0.68"/>
    <circle class="pt" cx="532.7" cy="378.4" r="2.90" opacity="0.54"/>
    <circle class="pt" cx="778.9" cy="335.2" r="3.22" opacity="0.49"/>
    <circle class="pt" cx="636.6" cy="609.0" r="2.40" opacity="0.81"/>
    <circle class="pt" cx="592.5" cy="323.2" r="3.32" opacity="0.59"/>
    <circle class="pt" cx="389.6" cy="429.3" r="2.81" opacity="0.56"/>
    <circle class="pt" cx="667.8" cy="438.8" r="3.19" opacity="0.63"/>
    <circle class="pt" cx="577.7" cy="306.8" r="2.21" opacity="0.56"/>
    <circle class="pt" cx="567.7" cy="410.0" r="2.59" opacity="0.64"/>
    <circle class="pt" cx="575.0" cy="453.1" r="3.18" opacity="0.65"/>
    <circle class="pt" cx="736.3" cy="561.6" r="3.27" opacity="0.78"/>
    <circle class="pt" cx="637.9" cy="383.6" r="3.83" opacity="0.54"/>
    <circle class="pt" cx="748.4" cy="431.6" r="2.94" opacity="0.60"/>
    <circle class="pt" cx="762.2" cy="305.5" r="3.71" opacity="0.67"/>
    <circle class="pt" cx="726.3" cy="500.6" r="2.76" opacity="0.57"/>
    <circle class="pt" cx="640.9" cy="338.7" r="2.32" opacity="0.60"/>
    <circle class="pt" cx="851.3" cy="468.5" r="3.97" opacity="0.43"/>
    <circle class="pt" cx="563.4" cy="451.5" r="3.91" opacity="0.59"/>
    <circle class="pt" cx="706.3" cy="499.5" r="2.35" opacity="0.71"/>
    <circle class="pt" cx="350.4" cy="170.0" r="2.29" opacity="0.66"/>
    <circle class="pt" cx="727.6" cy="416.6" r="2.70" opacity="0.47"/>
    <circle class="pt" cx="872.1" cy="460.0" r="2.38" opacity="0.64"/>
    <circle class="pt" cx="907.7" cy="403.0" r="4.12" opacity="0.65"/>
    <circle class="pt" cx="669.8" cy="310.7" r="2.51" opacity="0.79"/>
    <circle class="pt" cx="429.1" cy="353.2" r="3.76" opacity="0.57"/>
    <circle class="pt" cx="682.1" cy="481.4" r="2.37" opacity="0.56"/>
    <circle class="pt" cx="496.7" cy="240.3" r="4.21" opacity="0.61"/>
    <circle class="pt" cx="432.3" cy="334.0" r="3.69" opacity="0.44"/>
    <circle class="pt" cx="795.5" cy="473.9" r="4.26" opacity="0.64"/>
    <circle class="pt" cx="543.8" cy="353.2" r="3.51" opacity="0.76"/>
    <circle class="pt" cx="432.0" cy="222.0" r="4.22" opacity="0.57"/>
    <circle class="pt" cx="639.5" cy="381.7" r="2.79" opacity="0.72"/>
    <circle class="pt" cx="608.6" cy="317.7" r="3.84" opacity="0.51"/>
    <circle class="pt" cx="264.2" cy="258.6" r="2.51" opacity="0.56"/>
    <circle class="pt" cx="585.5" cy="421.0" r="2.93" opacity="0.53"/>
    <circle class="pt" cx="613.7" cy="355.4" r="3.06" opacity="0.44"/>
    <circle class="pt" cx="689.3" cy="288.9" r="4.14" opacity="0.46"/>
    <circle class="pt" cx="567.4" cy="494.3" r="3.30" opacity="0.59"/>
    <circle class="pt" cx="615.1" cy="464.5" r="3.94" opacity="0.68"/>
    <circle class="pt" cx="655.6" cy="375.8" r="3.78" opacity="0.80"/>
    <circle class="pt" cx="527.8" cy="463.6" r="2.25" opacity="0.72"/>
    <circle class="pt" cx="756.2" cy="395.5" r="3.14" opacity="0.71"/>
    <circle class="pt" cx="619.4" cy="390.1" r="2.65" opacity="0.46"/>
    <circle class="pt" cx="352.5" cy="294.5" r="2.41" opacity="0.64"/>
    <circle class="pt" cx="342.8" cy="251.2" r="2.86" opacity="0.65"/>
    <circle class="pt" cx="700.4" cy="443.1" r="4.23" opacity="0.72"/>
    <circle class="pt" cx="564.6" cy="420.4" r="2.94" opacity="0.60"/>
    <circle class="pt" cx="282.3" cy="463.2" r="2.90" opacity="0.68"/>
    <circle class="pt" cx="473.4" cy="447.0" r="3.00" opacity="0.48"/>
    <circle class="pt" cx="749.0" cy="460.4" r="3.80" opacity="0.73"/>
    <circle class="pt" cx="588.4" cy="524.8" r="3.66" opacity="0.58"/>
    <circle class="pt" cx="597.5" cy="412.1" r="4.09" opacity="0.77"/>
    <circle class="pt" cx="368.1" cy="454.5" r="3.28" opacity="0.81"/>
    <circle class="pt" cx="518.2" cy="342.4" r="3.64" opacity="0.79"/>
    <circle class="pt" cx="439.2" cy="276.2" r="3.11" opacity="0.47"/>
    <circle class="pt" cx="508.7" cy="305.9" r="3.30" opacity="0.55"/>
    <circle class="pt" cx="641.1" cy="489.4" r="2.03" opacity="0.66"/>
    <circle class="pt" cx="472.6" cy="405.3" r="3.79" opacity="0.62"/>
    <circle class="pt" cx="465.5" cy="209.8" r="4.26" opacity="0.76"/>
    <circle class="pt" cx="509.3" cy="366.8" r="3.90" opacity="0.47"/>
    <circle class="pt" cx="650.0" cy="356.4" r="3.74" opacity="0.81"/>
    <circle class="pt" cx="540.1" cy="384.6" r="4.10" opacity="0.48"/>
    <circle class="pt" cx="554.0" cy="331.6" r="4.26" opacity="0.79"/>
    <circle class="pt" cx="476.7" cy="420.7" r="3.02" opacity="0.68"/>
    <circle class="pt" cx="752.1" cy="431.7" r="3.22" opacity="0.67"/>
    <circle class="pt" cx="785.3" cy="322.1" r="2.84" opacity="0.58"/>
    <circle class="pt" cx="668.4" cy="363.2" r="2.33" opacity="0.54"/>
    <circle class="pt" cx="481.1" cy="329.8" r="3.15" opacity="0.69"/>
    <circle class="pt" cx="847.9" cy="411.3" r="2.08" opacity="0.73"/>
    <circle class="pt" cx="748.9" cy="333.9" r="3.80" opacity="0.61"/>
    <circle class="pt" cx="606.9" cy="423.2" r="3.36" opacity="0.62"/>
    <circle class="pt" cx="621.9" cy="305.6" r="3.55" opacity="0.69"/>
    <circle class="pt" cx="614.5" cy="288.1" r="3.40" opacity="0.77"/>
    <circle class="pt" cx="503.4" cy="396.5" r="3.97" opacity="0.80"/>
    <circle class="pt" cx="433.3" cy="332.3" r="3.68" opacity="0.63"/>
    <circle class="pt" cx="603.7" cy="333.8" r="3.64" opacity="0.73"/>
    <circle class="pt" cx="845.7" cy="329.5" r="2.56" opacity="0.59"/>
    <circle class="pt" cx="659.7" cy="325.7" r="2.50" opacity="0.48"/>
    <circle class="pt" cx="979.3" cy="444.6" r="3.72" opacity="0.62"/>
    <circle class="pt" cx="303.4" cy="442.1" r="2.27" opacity="0.59"/>
    <circle class="pt" cx="620.3" cy="443.9" r="3.19" opacity="0.60"/>
    <circle class="pt" cx="603.2" cy="381.6" r="3.62" opacity="0.58"/>
    <circle class="pt" cx="468.4" cy="288.0" r="3.73" opacity="0.65"/>
    <circle class="pt" cx="583.3" cy="491.1" r="2.45" opacity="0.69"/>
    <circle class="pt" cx="380.7" cy="345.5" r="2.77" opacity="0.47"/>
    <circle class="pt" cx="250.5" cy="437.5" r="2.31" opacity="0.69"/>
    <circle class="pt" cx="390.8" cy="341.5" r="4.21" opacity="0.42"/>
    <circle class="pt" cx="571.1" cy="251.2" r="3.44" opacity="0.68"/>
    <circle class="pt" cx="681.6" cy="431.5" r="2.22" opacity="0.52"/>
    <circle class="pt" cx="701.1" cy="472.6" r="2.43" opacity="0.50"/>
    <circle class="pt" cx="564.2" cy="416.1" r="2.24" opacity="0.78"/>
    <circle class="pt" cx="645.4" cy="426.7" r="2.65" opacity="0.80"/>
    <circle class="pt" cx="564.5" cy="432.4" r="3.84" opacity="0.57"/>
    <circle class="pt" cx="524.5" cy="433.5" r="4.11" opacity="0.67"/>
    <circle class="pt" cx="635.5" cy="320.3" r="2.55" opacity="0.76"/>
    <circle class="pt" cx="444.0" cy="349.6" r="4.28" opacity="0.71"/>
    <circle class="pt" cx="714.4" cy="408.1" r="3.55" opacity="0.79"/>
    <circle class="pt" cx="818.2" cy="353.1" r="3.22" opacity="0.81"/>
    <circle class="pt" cx="496.3" cy="381.9" r="4.04" opacity="0.63"/>
    <circle class="pt" cx="682.1" cy="369.1" r="4.12" opacity="0.66"/>
    <circle class="pt" cx="818.1" cy="348.0" r="2.31" opacity="0.68"/>
    <circle class="pt" cx="640.5" cy="412.8" r="2.28" opacity="0.59"/>
    <circle class="pt" cx="651.1" cy="363.1" r="3.13" opacity="0.63"/>
    <circle class="pt" cx="644.4" cy="384.8" r="2.70" opacity="0.48"/>
    <circle class="pt" cx="775.0" cy="544.0" r="2.43" opacity="0.78"/>
    <circle class="pt" cx="694.0" cy="419.9" r="4.05" opacity="0.81"/>
    <circle class="pt" cx="513.4" cy="294.0" r="3.56" opacity="0.79"/>
    <circle class="pt" cx="687.1" cy="348.5" r="3.46" opacity="0.60"/>
    <circle class="pt" cx="749.9" cy="483.6" r="3.27" opacity="0.73"/>
    <circle class="pt" cx="575.9" cy="390.1" r="4.28" opacity="0.65"/>
    <circle class="pt" cx="483.7" cy="354.4" r="2.53" opacity="0.51"/>
    <circle class="pt" cx="708.6" cy="468.6" r="2.51" opacity="0.45"/>
    <circle class="pt" cx="744.7" cy="398.2" r="2.28" opacity="0.60"/>
    <circle class="pt" cx="611.6" cy="420.8" r="3.91" opacity="0.73"/>
    <circle class="pt" cx="745.0" cy="334.0" r="4.02" opacity="0.58"/>
    <circle class="pt" cx="448.3" cy="426.4" r="3.27" opacity="0.65"/>
    <circle class="pt" cx="720.5" cy="438.6" r="2.52" opacity="0.45"/>
    <circle class="pt" cx="655.3" cy="450.1" r="3.89" opacity="0.45"/>
    <circle class="pt" cx="825.4" cy="342.1" r="4.08" opacity="0.71"/>
    <circle class="pt" cx="538.4" cy="397.8" r="3.66" opacity="0.65"/>
    <circle class="pt" cx="408.0" cy="429.3" r="3.80" opacity="0.66"/>
    <circle class="pt" cx="481.4" cy="446.4" r="4.20" opacity="0.51"/>
    <circle class="pt" cx="626.7" cy="340.3" r="3.13" opacity="0.82"/>
    <circle class="pt" cx="737.4" cy="484.0" r="3.35" opacity="0.69"/>
    <circle class="pt" cx="426.1" cy="445.5" r="3.88" opacity="0.44"/>
    <circle class="pt" cx="555.8" cy="483.7" r="2.97" opacity="0.45"/>
    <circle class="pt" cx="658.6" cy="380.1" r="2.14" opacity="0.47"/>
    <circle class="pt" cx="737.6" cy="386.6" r="3.74" opacity="0.61"/>
    <circle class="pt" cx="610.8" cy="351.8" r="3.29" opacity="0.60"/>
    <circle class="pt" cx="294.1" cy="339.5" r="3.88" opacity="0.80"/>
    <circle class="pt" cx="683.9" cy="371.1" r="3.69" opacity="0.42"/>
    <circle class="pt" cx="719.5" cy="280.4" r="4.04" opacity="0.47"/>
    <circle class="pt" cx="504.1" cy="301.8" r="2.53" opacity="0.72"/>
    <circle class="pt" cx="495.4" cy="383.6" r="3.10" opacity="0.45"/>
    <circle class="pt" cx="335.7" cy="386.2" r="3.63" opacity="0.42"/>
    <circle class="pt" cx="747.3" cy="384.3" r="3.74" opacity="0.56"/>
    <circle class="pt" cx="281.9" cy="273.0" r="2.13" opacity="0.49"/>
    <circle class="pt" cx="909.5" cy="519.3" r="2.70" opacity="0.77"/>
    <circle class="pt" cx="633.9" cy="399.5" r="2.24" opacity="0.82"/>
    <circle class="pt" cx="646.4" cy="425.7" r="2.70" opacity="0.74"/>
    <circle class="pt" cx="310.4" cy="244.0" r="3.89" opacity="0.46"/>
    <circle class="pt" cx="773.9" cy="358.5" r="3.29" opacity="0.74"/>
    <circle class="pt" cx="630.0" cy="367.3" r="3.94" opacity="0.62"/>
    <circle class="pt" cx="747.2" cy="462.2" r="3.88" opacity="0.72"/>
    <circle class="pt" cx="656.0" cy="493.2" r="4.29" opacity="0.45"/>
    <circle class="pt" cx="594.6" cy="365.0" r="2.19" opacity="0.63"/>
    <circle class="pt" cx="596.6" cy="439.3" r="4.11" opacity="0.68"/>
    <circle class="pt" cx="331.4" cy="523.5" r="3.38" opacity="0.74"/>
    <circle class="pt" cx="705.7" cy="365.3" r="3.91" opacity="0.64"/>
    <circle class="pt" cx="451.1" cy="418.6" r="2.84" opacity="0.47"/>
    <circle class="pt" cx="507.1" cy="398.9" r="4.21" opacity="0.78"/>
    <circle class="pt" cx="337.8" cy="266.8" r="2.74" opacity="0.56"/>
    <circle class="pt" cx="345.6" cy="487.9" r="3.15" opacity="0.61"/>
    <circle class="pt" cx="734.0" cy="421.1" r="2.05" opacity="0.56"/>
    <circle class="pt" cx="508.4" cy="353.7" r="3.65" opacity="0.70"/>
    <circle class="pt" cx="756.8" cy="417.6" r="2.10" opacity="0.74"/>
    <circle class="pt" cx="750.4" cy="419.1" r="3.84" opacity="0.47"/>
    <circle class="pt" cx="430.0" cy="314.4" r="2.96" opacity="0.77"/>
    <circle class="pt" cx="630.7" cy="416.3" r="2.80" opacity="0.76"/>
    <circle class="pt" cx="738.3" cy="344.8" r="4.26" opacity="0.68"/>
    <circle class="pt" cx="361.1" cy="488.1" r="3.70" opacity="0.76"/>
    <circle class="pt" cx="478.1" cy="182.7" r="3.59" opacity="0.48"/>
    <circle class="pt" cx="328.3" cy="432.6" r="2.16" opacity="0.49"/>
    <circle class="pt" cx="736.8" cy="451.2" r="4.08" opacity="0.72"/>
    <circle class="pt" cx="376.2" cy="414.7" r="3.05" opacity="0.54"/>
    <circle class="pt" cx="749.2" cy="274.2" r="3.90" opacity="0.81"/>
    <circle class="pt" cx="388.9" cy="406.4" r="3.96" opacity="0.80"/>
    <circle class="pt" cx="642.8" cy="413.5" r="3.47" opacity="0.79"/>
    <circle class="pt" cx="669.7" cy="419.2" r="2.80" opacity="0.42"/>
    <circle class="pt" cx="710.4" cy="362.1" r="4.28" opacity="0.67"/>
    <circle class="pt" cx="565.4" cy="354.5" r="2.29" opacity="0.44"/>
    <circle class="pt" cx="368.7" cy="419.7" r="4.22" opacity="0.51"/>
    <circle class="pt" cx="793.0" cy="415.9" r="4.02" opacity="0.45"/>
    <circle class="pt" cx="491.5" cy="255.7" r="4.04" opacity="0.54"/>
    <circle class="pt" cx="821.6" cy="463.3" r="4.20" opacity="0.51"/>
    <circle class="pt" cx="738.3" cy="464.7" r="2.41" opacity="0.61"/>
    <circle class="pt" cx="695.9" cy="265.9" r="4.09" opacity="0.59"/>
    <circle class="pt" cx="362.7" cy="425.4" r="2.95" opacity="0.55"/>
    <circle class="pt" cx="452.0" cy="456.6" r="2.62" opacity="0.52"/>
    <circle class="pt" cx="874.6" cy="396.2" r="3.47" opacity="0.82"/>
    <circle class="pt" cx="817.1" cy="504.3" r="3.27" opacity="0.70"/>
    <circle class="pt" cx="346.1" cy="501.0" r="2.01" opacity="0.72"/>
    <circle class="pt" cx="783.0" cy="473.1" r="3.27" opacity="0.78"/>
    <circle class="pt" cx="633.4" cy="440.2" r="2.72" opacity="0.47"/>
    <circle class="pt" cx="722.9" cy="450.9" r="3.52" opacity="0.82"/>
    <circle class="pt" cx="680.9" cy="408.3" r="3.84" opacity="0.54"/>
    <circle class="pt" cx="963.1" cy="343.4" r="3.32" opacity="0.58"/>
    <circle class="pt" cx="691.2" cy="377.5" r="3.57" opacity="0.70"/>
    <circle class="pt" cx="565.2" cy="389.9" r="4.27" opacity="0.57"/>
    <circle class="pt" cx="622.6" cy="454.6" r="2.22" opacity="0.74"/>
    <circle class="pt" cx="813.9" cy="331.8" r="3.10" opacity="0.59"/>
    <circle class="pt" cx="712.2" cy="461.5" r="2.79" opacity="0.55"/>
    <circle class="pt" cx="709.0" cy="363.5" r="2.65" opacity="0.70"/>
    <circle class="pt" cx="586.5" cy="449.8" r="3.60" opacity="0.67"/>
    <circle class="pt" cx="438.9" cy="400.1" r="2.01" opacity="0.59"/>
    <circle class="pt" cx="665.7" cy="292.4" r="2.03" opacity="0.52"/>
    <circle class="pt" cx="414.9" cy="391.8" r="2.64" opacity="0.81"/>
    <circle class="pt" cx="625.1" cy="349.4" r="2.25" opacity="0.42"/>
    <circle class="pt" cx="662.1" cy="289.6" r="3.10" opacity="0.62"/>
    <circle class="pt" cx="620.3" cy="277.8" r="3.53" opacity="0.65"/>
    <circle class="pt" cx="705.5" cy="415.3" r="4.01" opacity="0.47"/>
    <circle class="pt" cx="647.6" cy="394.1" r="2.83" opacity="0.42"/>
    <circle class="pt" cx="545.7" cy="481.9" r="4.21" opacity="0.66"/>
    <circle class="pt" cx="669.4" cy="306.0" r="2.85" opacity="0.80"/>
    <circle class="pt" cx="558.8" cy="514.7" r="2.20" opacity="0.50"/>
    <circle class="pt" cx="574.9" cy="467.5" r="3.45" opacity="0.80"/>
    <circle class="pt" cx="463.6" cy="337.8" r="4.19" opacity="0.44"/>
    <circle class="pt" cx="579.7" cy="457.7" r="4.26" opacity="0.80"/>
    <circle class="pt" cx="661.3" cy="435.3" r="2.57" opacity="0.44"/>
    <circle class="pt" cx="648.3" cy="315.6" r="2.69" opacity="0.59"/>
    <circle class="pt" cx="658.0" cy="417.7" r="4.10" opacity="0.78"/>
    <circle class="pt" cx="529.0" cy="425.1" r="2.13" opacity="0.59"/>
    <circle class="pt" cx="687.4" cy="389.9" r="2.19" opacity="0.77"/>
    <circle class="pt" cx="415.2" cy="335.3" r="3.33" opacity="0.68"/>
    <circle class="pt" cx="566.0" cy="394.5" r="3.26" opacity="0.62"/>
    <circle class="pt" cx="830.0" cy="351.7" r="2.88" opacity="0.63"/>
    <circle class="pt" cx="540.1" cy="290.6" r="3.52" opacity="0.69"/>
    <circle class="pt" cx="616.0" cy="461.2" r="4.04" opacity="0.61"/>
    <circle class="pt" cx="461.9" cy="371.3" r="3.36" opacity="0.50"/>
    <circle class="pt" cx="414.8" cy="429.4" r="2.75" opacity="0.57"/>
    <circle class="pt" cx="762.6" cy="473.7" r="3.21" opacity="0.82"/>
    <circle class="pt" cx="794.8" cy="420.2" r="2.34" opacity="0.56"/>
    <circle class="pt" cx="557.4" cy="335.9" r="2.96" opacity="0.72"/>
    <circle class="pt" cx="423.7" cy="423.8" r="2.23" opacity="0.57"/>
    <circle class="pt" cx="602.5" cy="387.7" r="2.13" opacity="0.73"/>
    <circle class="pt" cx="594.0" cy="552.7" r="2.76" opacity="0.76"/>
    <circle class="pt" cx="800.6" cy="390.9" r="3.33" opacity="0.76"/>
    <circle class="pt" cx="530.7" cy="282.3" r="3.34" opacity="0.55"/>
    <circle class="pt" cx="666.2" cy="290.5" r="2.89" opacity="0.62"/>
    <circle class="pt" cx="714.0" cy="257.9" r="4.18" opacity="0.47"/>
    <circle class="pt" cx="333.7" cy="300.6" r="3.13" opacity="0.63"/>
    <circle class="pt" cx="637.0" cy="372.6" r="2.34" opacity="0.45"/>
    <circle class="pt" cx="487.8" cy="406.7" r="3.40" opacity="0.46"/>
    <circle class="pt" cx="703.5" cy="327.4" r="3.37" opacity="0.62"/>
    <circle class="pt" cx="581.4" cy="355.2" r="4.09" opacity="0.59"/>
    <circle class="pt" cx="543.2" cy="482.9" r="4.21" opacity="0.62"/>
    <circle class="pt" cx="449.0" cy="333.7" r="3.48" opacity="0.65"/>
    <circle class="pt" cx="530.1" cy="449.2" r="4.06" opacity="0.46"/>
    <circle class="pt" cx="510.3" cy="347.4" r="2.36" opacity="0.72"/>
    <circle class="pt" cx="611.6" cy="320.1" r="2.07" opacity="0.59"/>
    <circle class="pt" cx="409.4" cy="353.3" r="3.58" opacity="0.70"/>
    <circle class="pt" cx="583.8" cy="349.5" r="3.24" opacity="0.43"/>
    <circle class="pt" cx="502.5" cy="424.8" r="2.82" opacity="0.71"/>
    <circle class="pt" cx="607.9" cy="361.6" r="4.28" opacity="0.74"/>
    <circle class="pt" cx="337.5" cy="403.4" r="2.53" opacity="0.72"/>
    <circle class="pt" cx="408.0" cy="295.2" r="3.94" opacity="0.51"/>
    <circle class="pt" cx="279.1" cy="378.6" r="3.81" opacity="0.75"/>
    <circle class="pt" cx="522.0" cy="377.4" r="2.56" opacity="0.58"/>
    <circle class="pt" cx="716.6" cy="413.9" r="3.75" opacity="0.73"/>
    <circle class="pt" cx="536.0" cy="371.8" r="3.97" opacity="0.79"/>
    <circle class="pt" cx="525.5" cy="409.5" r="2.94" opacity="0.68"/>
    <circle class="pt" cx="647.9" cy="432.5" r="3.05" opacity="0.61"/>
    <circle class="pt" cx="724.6" cy="214.9" r="3.38" opacity="0.63"/>
    <circle class="pt" cx="520.2" cy="390.8" r="4.26" opacity="0.58"/>
    <circle class="pt" cx="514.1" cy="323.9" r="4.21" opacity="0.77"/>
    <circle class="pt" cx="510.7" cy="412.4" r="4.22" opacity="0.61"/>
    <circle class="pt" cx="496.2" cy="244.3" r="2.07" opacity="0.44"/>
    <circle class="pt" cx="740.1" cy="434.6" r="3.86" opacity="0.55"/>
    <circle class="pt" cx="684.4" cy="582.4" r="3.91" opacity="0.82"/>
    <circle class="pt" cx="682.8" cy="406.8" r="2.24" opacity="0.65"/>
    <circle class="pt" cx="394.7" cy="295.5" r="2.44" opacity="0.75"/>
    <circle class="pt" cx="841.1" cy="392.8" r="3.60" opacity="0.70"/>
    <circle class="pt" cx="750.8" cy="346.1" r="2.72" opacity="0.43"/>
    <circle class="pt" cx="571.1" cy="474.5" r="3.83" opacity="0.59"/>
    <circle class="pt" cx="653.9" cy="436.3" r="2.59" opacity="0.67"/>
    <circle class="pt" cx="566.8" cy="403.1" r="3.56" opacity="0.74"/>
    <circle class="pt" cx="681.8" cy="478.6" r="3.14" opacity="0.78"/>
    <circle class="pt" cx="663.3" cy="345.6" r="3.39" opacity="0.64"/>
    <circle class="pt" cx="636.4" cy="377.6" r="3.98" opacity="0.49"/>
    <circle class="pt" cx="560.4" cy="331.6" r="3.89" opacity="0.67"/>
    <circle class="pt" cx="858.9" cy="453.4" r="3.44" opacity="0.49"/>
    <circle class="pt" cx="518.2" cy="441.9" r="2.05" opacity="0.44"/>
    <circle class="pt" cx="731.5" cy="317.3" r="3.76" opacity="0.43"/>
    <circle class="pt" cx="490.2" cy="330.4" r="3.91" opacity="0.47"/>
    <circle class="pt" cx="667.1" cy="505.8" r="2.22" opacity="0.58"/>
    <circle class="pt" cx="953.8" cy="409.5" r="3.34" opacity="0.63"/>
    <circle class="pt" cx="509.9" cy="428.6" r="3.36" opacity="0.68"/>
    <circle class="pt" cx="575.3" cy="452.1" r="3.80" opacity="0.66"/>
    <circle class="pt" cx="667.2" cy="493.5" r="4.13" opacity="0.73"/>
    <circle class="pt" cx="709.1" cy="294.3" r="3.92" opacity="0.71"/>
    <circle class="pt" cx="968.6" cy="380.6" r="2.57" opacity="0.49"/>
    <circle class="pt" cx="601.6" cy="454.8" r="2.16" opacity="0.59"/>
    <circle class="pt" cx="353.5" cy="284.8" r="3.79" opacity="0.44"/>
    <circle class="pt" cx="324.0" cy="439.4" r="2.54" opacity="0.72"/>
    <circle class="pt" cx="805.8" cy="500.3" r="2.25" opacity="0.47"/>
    <circle class="pt" cx="759.2" cy="428.8" r="2.28" opacity="0.79"/>
    <circle class="pt" cx="675.4" cy="323.4" r="2.01" opacity="0.72"/>
    <circle class="pt" cx="512.9" cy="393.8" r="3.16" opacity="0.66"/>
    <circle class="pt" cx="574.8" cy="346.3" r="4.30" opacity="0.43"/>
    <circle class="pt" cx="827.1" cy="428.0" r="3.78" opacity="0.66"/>
    <circle class="pt" cx="757.6" cy="461.2" r="3.62" opacity="0.72"/>
    <circle class="pt" cx="589.7" cy="407.0" r="2.04" opacity="0.45"/>
    <circle class="pt" cx="704.1" cy="472.4" r="2.51" opacity="0.70"/>
    <circle class="pt" cx="400.1" cy="360.8" r="3.19" opacity="0.56"/>
    <circle class="pt" cx="794.0" cy="347.4" r="4.13" opacity="0.76"/>
    <circle class="pt" cx="591.2" cy="423.9" r="2.56" opacity="0.78"/>
    <circle class="pt" cx="819.5" cy="378.7" r="3.06" opacity="0.57"/>
    <circle class="pt" cx="575.1" cy="402.1" r="3.33" opacity="0.42"/>
    <circle class="pt" cx="598.1" cy="462.1" r="3.77" opacity="0.65"/>
    <circle class="pt" cx="412.3" cy="359.0" r="2.58" opacity="0.60"/>
    <circle class="pt" cx="476.1" cy="410.9" r="4.27" opacity="0.56"/>
    <circle class="pt" cx="436.1" cy="310.4" r="2.99" opacity="0.60"/>
    <circle class="pt" cx="683.5" cy="480.1" r="3.47" opacity="0.42"/>
    <circle class="pt" cx="624.4" cy="439.7" r="3.34" opacity="0.51"/>
    <circle class="pt" cx="604.2" cy="359.7" r="4.01" opacity="0.58"/>
    <circle class="pt" cx="562.1" cy="398.1" r="2.66" opacity="0.78"/>
    <circle class="pt" cx="611.6" cy="439.0" r="3.09" opacity="0.78"/>
    <circle class="pt" cx="719.9" cy="371.4" r="2.42" opacity="0.57"/>
    <circle class="pt" cx="660.7" cy="401.7" r="3.61" opacity="0.66"/>
    <circle class="pt" cx="867.0" cy="490.1" r="2.77" opacity="0.76"/>
    <circle class="pt" cx="682.7" cy="398.4" r="4.03" opacity="0.50"/>
    <circle class="pt" cx="547.8" cy="246.2" r="2.82" opacity="0.46"/>
    <circle class="pt" cx="399.7" cy="389.4" r="2.44" opacity="0.63"/>
    <circle class="pt" cx="904.7" cy="498.0" r="3.66" opacity="0.81"/>
    <circle class="pt" cx="516.9" cy="510.6" r="3.85" opacity="0.64"/>
    <circle class="pt" cx="366.0" cy="378.0" r="2.15" opacity="0.60"/>
    <circle class="pt" cx="666.0" cy="441.0" r="2.04" opacity="0.47"/>
    <circle class="pt" cx="642.5" cy="470.9" r="3.01" opacity="0.64"/>
    <circle class="pt" cx="594.6" cy="354.6" r="3.27" opacity="0.55"/>
    <circle class="pt" cx="606.4" cy="397.0" r="2.57" opacity="0.75"/>
    <circle class="pt" cx="410.9" cy="389.0" r="3.60" opacity="0.68"/>
    <circle class="pt" cx="856.8" cy="405.3" r="3.78" opacity="0.56"/>
    <circle class="pt" cx="808.2" cy="341.4" r="4.19" opacity="0.75"/>
    <circle class="pt" cx="602.3" cy="296.5" r="2.15" opacity="0.68"/>
    <circle class="pt" cx="639.8" cy="497.9" r="2.70" opacity="0.67"/>
    <circle class="pt" cx="338.5" cy="358.7" r="2.15" opacity="0.43"/>
    <circle class="pt" cx="274.2" cy="313.6" r="3.34" opacity="0.61"/>
    <circle class="pt" cx="602.9" cy="335.5" r="2.32" opacity="0.61"/>
    <circle class="pt" cx="666.0" cy="312.1" r="3.85" opacity="0.52"/>
    <circle class="pt" cx="389.8" cy="331.9" r="2.95" opacity="0.82"/>
    <circle class="pt" cx="666.6" cy="405.2" r="2.12" opacity="0.70"/>
    <circle class="pt" cx="755.3" cy="441.5" r="2.48" opacity="0.77"/>
    <circle class="pt" cx="499.5" cy="407.6" r="2.21" opacity="0.73"/>
    <circle class="pt" cx="480.9" cy="475.8" r="2.44" opacity="0.73"/>
    <circle class="pt" cx="311.5" cy="381.2" r="3.00" opacity="0.73"/>
    <circle class="pt" cx="957.7" cy="473.2" r="3.64" opacity="0.70"/>
    <circle class="pt" cx="680.1" cy="388.9" r="3.01" opacity="0.54"/>
    <circle class="pt" cx="448.3" cy="326.0" r="3.26" opacity="0.69"/>
    <circle class="pt" cx="602.6" cy="510.6" r="4.12" opacity="0.64"/>
    <circle class="pt" cx="641.2" cy="408.6" r="2.07" opacity="0.73"/>
    <circle class="pt" cx="629.7" cy="420.8" r="2.48" opacity="0.70"/>
    <circle class="pt" cx="671.5" cy="442.5" r="2.03" opacity="0.70"/>
    <circle class="pt" cx="709.2" cy="312.7" r="3.48" opacity="0.63"/>
    <circle class="pt" cx="589.2" cy="319.6" r="2.77" opacity="0.71"/>
    <circle class="pt" cx="566.3" cy="467.4" r="3.93" opacity="0.77"/>
    <circle class="pt" cx="794.5" cy="357.9" r="4.12" opacity="0.77"/>
    <circle class="pt" cx="524.4" cy="463.2" r="3.06" opacity="0.61"/>
    <circle class="pt" cx="672.9" cy="413.7" r="2.65" opacity="0.50"/>
    <circle class="pt" cx="666.7" cy="316.6" r="3.35" opacity="0.67"/>
    <circle class="pt" cx="663.6" cy="392.2" r="2.72" opacity="0.68"/>
    <circle class="pt" cx="617.9" cy="452.8" r="3.82" opacity="0.60"/>
    <circle class="pt" cx="648.1" cy="480.1" r="3.06" opacity="0.57"/>
    <circle class="pt" cx="490.4" cy="389.3" r="2.08" opacity="0.46"/>
    <circle class="pt" cx="563.7" cy="433.5" r="3.76" opacity="0.76"/>
    <circle class="pt" cx="747.7" cy="329.3" r="3.85" opacity="0.61"/>
    <circle class="pt" cx="579.8" cy="333.3" r="3.39" opacity="0.68"/>
    <circle class="pt" cx="835.3" cy="204.3" r="3.95" opacity="0.64"/>
    <circle class="pt" cx="636.0" cy="374.3" r="3.99" opacity="0.66"/>
    <circle class="pt" cx="555.2" cy="313.4" r="2.69" opacity="0.57"/>
    <circle class="pt" cx="595.6" cy="468.3" r="2.31" opacity="0.65"/>
    <circle class="pt" cx="687.0" cy="227.3" r="2.60" opacity="0.71"/>
    <circle class="pt" cx="478.3" cy="419.4" r="4.07" opacity="0.53"/>
    <circle class="pt" cx="423.1" cy="356.4" r="3.77" opacity="0.54"/>
    <circle class="pt" cx="604.6" cy="265.1" r="2.45" opacity="0.58"/>
    <circle class="pt" cx="791.1" cy="326.6" r="3.74" opacity="0.73"/>
    <circle class="pt" cx="550.3" cy="391.5" r="2.66" opacity="0.71"/>
    <circle class="pt" cx="834.5" cy="445.4" r="2.33" opacity="0.54"/>
    <circle class="pt" cx="568.2" cy="436.8" r="4.17" opacity="0.72"/>
    <circle class="pt" cx="726.5" cy="399.2" r="4.25" opacity="0.49"/>
    <circle class="pt" cx="542.6" cy="303.1" r="2.21" opacity="0.63"/>
    <circle class="pt" cx="513.8" cy="558.7" r="3.12" opacity="0.45"/>
    <circle class="pt" cx="528.4" cy="422.3" r="2.84" opacity="0.66"/>
    <circle class="pt" cx="473.5" cy="372.5" r="4.04" opacity="0.57"/>
    <circle class="pt" cx="654.9" cy="406.3" r="2.35" opacity="0.53"/>
    <circle class="pt" cx="519.7" cy="327.3" r="2.80" opacity="0.55"/>
    <circle class="pt" cx="624.7" cy="372.1" r="2.20" opacity="0.76"/>
    <circle class="pt" cx="701.7" cy="278.3" r="2.26" opacity="0.45"/>
    <circle class="pt" cx="387.8" cy="347.7" r="2.62" opacity="0.78"/>
    <circle class="pt" cx="446.9" cy="199.6" r="2.21" opacity="0.76"/>
    <circle class="pt" cx="448.6" cy="322.7" r="2.74" opacity="0.76"/>
    <circle class="pt" cx="936.2" cy="507.6" r="2.93" opacity="0.52"/>
    <circle class="pt" cx="630.5" cy="319.4" r="3.22" opacity="0.44"/>
    <circle class="pt" cx="719.2" cy="445.4" r="2.08" opacity="0.49"/>
    <circle class="pt" cx="646.0" cy="310.0" r="2.45" opacity="0.71"/>
    <circle class="pt" cx="743.5" cy="506.2" r="4.07" opacity="0.73"/>
    <circle class="pt" cx="628.4" cy="431.0" r="3.65" opacity="0.64"/>
    <circle class="pt" cx="462.2" cy="428.2" r="2.73" opacity="0.62"/>
    <circle class="pt" cx="370.3" cy="377.5" r="3.83" opacity="0.72"/>
    <circle class="pt" cx="888.9" cy="547.5" r="4.22" opacity="0.49"/>
    <circle class="pt" cx="838.1" cy="385.3" r="2.78" opacity="0.63"/>
    <circle class="pt" cx="582.6" cy="279.4" r="2.39" opacity="0.61"/>
    <circle class="pt" cx="645.5" cy="459.1" r="2.42" opacity="0.43"/>
    <circle class="pt" cx="478.0" cy="414.7" r="3.97" opacity="0.54"/>
    <circle class="pt" cx="550.9" cy="436.0" r="2.24" opacity="0.64"/>
    <circle class="pt" cx="402.4" cy="265.9" r="3.68" opacity="0.60"/>
    <circle class="pt" cx="911.9" cy="369.7" r="3.62" opacity="0.66"/>
    <circle class="pt" cx="653.5" cy="347.1" r="3.44" opacity="0.54"/>
    <circle class="pt" cx="645.5" cy="286.7" r="2.88" opacity="0.67"/>
    <circle class="pt" cx="671.8" cy="461.3" r="3.21" opacity="0.56"/>
    <circle class="pt" cx="555.9" cy="437.4" r="3.31" opacity="0.46"/>
    <circle class="pt" cx="476.2" cy="344.9" r="3.84" opacity="0.45"/>
    <circle class="pt" cx="402.8" cy="409.2" r="3.38" opacity="0.55"/>
    <circle class="pt" cx="629.5" cy="355.0" r="2.78" opacity="0.77"/>
    <circle class="pt" cx="752.0" cy="485.6" r="3.98" opacity="0.74"/>
    <circle class="pt" cx="847.1" cy="450.5" r="3.26" opacity="0.61"/>
    <circle class="pt" cx="596.3" cy="359.8" r="2.64" opacity="0.47"/>
    <circle class="pt" cx="474.8" cy="396.6" r="4.02" opacity="0.49"/>
    <circle class="pt" cx="675.3" cy="418.8" r="3.89" opacity="0.69"/>
    <circle class="pt" cx="515.9" cy="301.5" r="2.48" opacity="0.79"/>
    <circle class="pt" cx="386.9" cy="272.6" r="2.17" opacity="0.61"/>
    <circle class="pt" cx="550.6" cy="412.0" r="3.69" opacity="0.72"/>
    <circle class="pt" cx="444.1" cy="463.6" r="2.01" opacity="0.55"/>
    <circle class="pt" cx="700.9" cy="327.5" r="2.85" opacity="0.56"/>
    <circle class="pt" cx="523.8" cy="315.1" r="3.36" opacity="0.72"/>
    <circle class="pt" cx="504.2" cy="406.1" r="2.62" opacity="0.70"/>
    <circle class="pt" cx="499.2" cy="261.1" r="2.17" opacity="0.58"/>
    <circle class="pt" cx="710.5" cy="461.7" r="2.96" opacity="0.67"/>
    <circle class="pt" cx="734.0" cy="396.1" r="2.87" opacity="0.47"/>
    <circle class="pt" cx="653.0" cy="378.9" r="2.49" opacity="0.69"/>
    <circle class="pt" cx="731.4" cy="434.4" r="2.77" opacity="0.64"/>
    <circle class="pt" cx="495.1" cy="267.2" r="3.72" opacity="0.70"/>
    <circle class="pt" cx="619.5" cy="354.5" r="2.42" opacity="0.77"/>
    <circle class="pt" cx="593.5" cy="290.9" r="3.01" opacity="0.50"/>
    <circle class="pt" cx="618.5" cy="304.3" r="2.24" opacity="0.48"/>
    <circle class="pt" cx="568.7" cy="434.1" r="2.21" opacity="0.72"/>
    <circle class="pt" cx="429.7" cy="341.5" r="2.96" opacity="0.76"/>
    <circle class="pt" cx="353.2" cy="379.8" r="3.81" opacity="0.48"/>
    <circle class="pt" cx="698.5" cy="360.4" r="4.12" opacity="0.73"/>
    <circle class="pt" cx="448.2" cy="314.7" r="3.28" opacity="0.61"/>
    <circle class="pt" cx="776.1" cy="435.3" r="3.50" opacity="0.60"/>
    <circle class="pt" cx="658.7" cy="366.7" r="4.12" opacity="0.82"/>
    <circle class="pt" cx="479.1" cy="418.6" r="2.43" opacity="0.79"/>
    <circle class="pt" cx="629.2" cy="234.8" r="3.66" opacity="0.79"/>
    <circle class="pt" cx="361.3" cy="299.8" r="3.70" opacity="0.71"/>
    <circle class="pt" cx="630.7" cy="410.1" r="2.02" opacity="0.75"/>
    <circle class="pt" cx="654.7" cy="251.0" r="3.78" opacity="0.51"/>
    <circle class="pt" cx="685.6" cy="569.8" r="2.76" opacity="0.56"/>
    <circle class="pt" cx="571.7" cy="352.9" r="3.84" opacity="0.63"/>
    <circle class="pt" cx="817.7" cy="452.4" r="3.73" opacity="0.76"/>
    <circle class="pt" cx="939.4" cy="287.7" r="3.41" opacity="0.72"/>
    <circle class="pt" cx="620.2" cy="425.0" r="3.79" opacity="0.52"/>
    <circle class="pt" cx="381.7" cy="383.2" r="3.39" opacity="0.63"/>
    <circle class="pt" cx="384.9" cy="398.4" r="3.23" opacity="0.65"/>
    <circle class="pt" cx="522.1" cy="332.9" r="3.21" opacity="0.57"/>
    <circle class="pt" cx="674.1" cy="358.7" r="3.03" opacity="0.47"/>
    <circle class="pt" cx="678.0" cy="400.9" r="3.45" opacity="0.67"/>
    <circle class="pt" cx="518.6" cy="263.6" r="3.06" opacity="0.74"/>
    <circle class="pt" cx="361.8" cy="265.7" r="2.27" opacity="0.64"/>
    <circle class="pt" cx="300.0" cy="421.5" r="2.89" opacity="0.43"/>
    <circle class="pt" cx="555.9" cy="377.4" r="4.13" opacity="0.49"/>
    <circle class="pt" cx="456.9" cy="418.0" r="3.11" opacity="0.57"/>
    <circle class="pt" cx="297.9" cy="280.9" r="4.01" opacity="0.47"/>
    <circle class="pt" cx="640.3" cy="399.3" r="3.11" opacity="0.66"/>
    <circle class="pt" cx="566.2" cy="397.3" r="3.33" opacity="0.73"/>
    <circle class="pt" cx="298.3" cy="306.6" r="2.56" opacity="0.50"/>
    <circle class="pt" cx="584.0" cy="358.0" r="4.13" opacity="0.67"/>
    <circle class="pt" cx="516.2" cy="394.9" r="3.69" opacity="0.64"/>
    <circle class="pt" cx="604.5" cy="362.1" r="3.89" opacity="0.56"/>
    <circle class="pt" cx="492.8" cy="417.4" r="3.10" opacity="0.57"/>
    <circle class="pt" cx="292.2" cy="415.9" r="4.08" opacity="0.43"/>
    <circle class="pt" cx="632.7" cy="370.8" r="2.91" opacity="0.68"/>
    <circle class="pt" cx="622.7" cy="300.3" r="2.54" opacity="0.60"/>
    <circle class="pt" cx="574.5" cy="356.1" r="3.35" opacity="0.61"/>
    <circle class="pt" cx="568.4" cy="218.9" r="2.40" opacity="0.73"/>
    <circle class="pt" cx="441.3" cy="388.7" r="3.97" opacity="0.64"/>
    <circle class="pt" cx="465.5" cy="300.7" r="3.65" opacity="0.80"/>
    <circle class="pt" cx="685.2" cy="379.1" r="2.06" opacity="0.43"/>
    <circle class="pt" cx="498.2" cy="422.6" r="2.96" opacity="0.54"/>
    <circle class="pt" cx="695.9" cy="374.2" r="3.20" opacity="0.75"/>
    <circle class="pt" cx="548.2" cy="447.1" r="3.81" opacity="0.71"/>
    <circle class="pt" cx="482.5" cy="355.3" r="2.78" opacity="0.53"/>
    <circle class="pt" cx="445.7" cy="307.1" r="4.19" opacity="0.60"/>
    <circle class="pt" cx="691.5" cy="304.9" r="2.54" opacity="0.50"/>
    <circle class="pt" cx="597.1" cy="393.2" r="2.05" opacity="0.65"/>
    <circle class="pt" cx="786.4" cy="506.5" r="2.55" opacity="0.76"/>
    <circle class="pt" cx="691.4" cy="341.7" r="3.25" opacity="0.50"/>
    <circle class="pt" cx="526.1" cy="350.2" r="3.17" opacity="0.75"/>
    <circle class="pt" cx="412.9" cy="294.4" r="2.97" opacity="0.52"/>
    <circle class="pt" cx="611.7" cy="330.0" r="3.35" opacity="0.45"/>
    <circle class="pt" cx="496.6" cy="314.1" r="3.41" opacity="0.82"/>
    <circle class="pt" cx="439.5" cy="444.0" r="3.08" opacity="0.64"/>
    <circle class="pt" cx="593.3" cy="258.6" r="3.91" opacity="0.57"/>
    <circle class="pt" cx="653.9" cy="451.6" r="2.03" opacity="0.81"/>
    <circle class="pt" cx="616.1" cy="398.7" r="3.05" opacity="0.51"/>
    <circle class="pt" cx="486.5" cy="394.2" r="3.21" opacity="0.80"/>
    <circle class="pt" cx="343.0" cy="323.1" r="2.42" opacity="0.67"/>
    <circle class="pt" cx="617.1" cy="323.8" r="3.24" opacity="0.80"/>
    <circle class="pt" cx="580.3" cy="510.6" r="3.97" opacity="0.48"/>
    <circle class="pt" cx="552.7" cy="422.3" r="3.38" opacity="0.59"/>
    <circle class="pt" cx="595.6" cy="437.6" r="3.39" opacity="0.42"/>
    <circle class="pt" cx="615.3" cy="381.9" r="3.25" opacity="0.73"/>
    <circle class="pt" cx="752.2" cy="359.8" r="2.44" opacity="0.75"/>
    <circle class="pt" cx="557.1" cy="434.7" r="2.37" opacity="0.53"/>
    <circle class="pt" cx="457.7" cy="349.5" r="2.75" opacity="0.43"/>
    <circle class="pt" cx="453.4" cy="401.4" r="3.60" opacity="0.46"/>
    <circle class="pt" cx="587.0" cy="381.2" r="3.06" opacity="0.75"/>
    <circle class="pt" cx="625.4" cy="284.0" r="2.01" opacity="0.55"/>
    <circle class="pt" cx="862.3" cy="247.8" r="3.19" opacity="0.68"/>
    <circle class="pt" cx="681.3" cy="389.7" r="3.80" opacity="0.77"/>
    <circle class="pt" cx="523.2" cy="246.7" r="2.83" opacity="0.59"/>
    <circle class="pt" cx="541.5" cy="376.2" r="4.12" opacity="0.50"/>
    <circle class="pt" cx="774.5" cy="417.2" r="4.17" opacity="0.44"/>
    <circle class="pt" cx="594.3" cy="451.9" r="2.15" opacity="0.76"/>
    <circle class="pt" cx="759.2" cy="375.2" r="2.99" opacity="0.47"/>
    <circle class="pt" cx="316.3" cy="438.7" r="2.58" opacity="0.53"/>
    <circle class="pt" cx="658.5" cy="386.7" r="3.88" opacity="0.59"/>
    <circle class="pt" cx="352.6" cy="346.7" r="2.74" opacity="0.78"/>
    <circle class="pt" cx="312.5" cy="458.5" r="3.36" opacity="0.71"/>
    <circle class="pt" cx="585.5" cy="403.0" r="2.15" opacity="0.76"/>
    <circle class="pt" cx="544.3" cy="515.0" r="4.08" opacity="0.61"/>
    <circle class="pt" cx="689.6" cy="363.5" r="2.90" opacity="0.57"/>
    <circle class="pt" cx="634.4" cy="452.6" r="3.24" opacity="0.45"/>
    <circle class="pt" cx="556.2" cy="425.6" r="3.07" opacity="0.61"/>
    <circle class="pt" cx="711.7" cy="368.1" r="4.17" opacity="0.66"/>
    <circle class="pt" cx="523.2" cy="369.2" r="3.45" opacity="0.70"/>
    <circle class="pt" cx="355.2" cy="277.7" r="4.24" opacity="0.60"/>
    <circle class="pt" cx="610.1" cy="470.4" r="2.92" opacity="0.53"/>
    <circle class="pt" cx="390.6" cy="347.8" r="2.92" opacity="0.52"/>
    <circle class="pt" cx="504.7" cy="394.6" r="2.83" opacity="0.58"/>
    <circle class="pt" cx="664.6" cy="458.8" r="3.31" opacity="0.81"/>
    <circle class="pt" cx="745.9" cy="268.3" r="2.50" opacity="0.61"/>
    <circle class="pt" cx="634.7" cy="278.0" r="4.06" opacity="0.60"/>
    <circle class="pt" cx="724.8" cy="375.8" r="4.18" opacity="0.67"/>
    <circle class="pt" cx="531.8" cy="369.9" r="4.11" opacity="0.67"/>
    <circle class="pt" cx="856.5" cy="423.0" r="4.16" opacity="0.76"/>
    <circle class="pt" cx="666.0" cy="404.8" r="4.27" opacity="0.80"/>
    <circle class="pt" cx="836.3" cy="357.2" r="2.24" opacity="0.43"/>
    <circle class="pt" cx="724.1" cy="306.7" r="2.87" opacity="0.43"/>
    <circle class="pt" cx="927.5" cy="482.4" r="2.40" opacity="0.80"/>
    <circle class="pt" cx="517.1" cy="410.4" r="2.81" opacity="0.79"/>
    <circle class="pt" cx="677.0" cy="368.3" r="2.03" opacity="0.62"/>
    <circle class="pt" cx="484.9" cy="394.0" r="2.35" opacity="0.71"/>
    <circle class="pt" cx="615.4" cy="399.7" r="3.59" opacity="0.68"/>
    <circle class="pt" cx="303.0" cy="365.1" r="3.92" opacity="0.63"/>
    <circle class="pt" cx="760.3" cy="356.8" r="4.06" opacity="0.72"/>
    <circle class="pt" cx="735.6" cy="339.3" r="3.63" opacity="0.78"/>
    <circle class="pt" cx="319.9" cy="325.3" r="2.22" opacity="0.57"/>
    <circle class="pt" cx="607.5" cy="374.3" r="2.84" opacity="0.69"/>
    <circle class="pt" cx="581.1" cy="161.0" r="2.18" opacity="0.60"/>
    <circle class="pt" cx="677.6" cy="438.8" r="3.27" opacity="0.47"/>
    <circle class="pt" cx="565.4" cy="413.1" r="3.69" opacity="0.55"/>
    <circle class="pt" cx="558.4" cy="357.1" r="2.35" opacity="0.57"/>
    <circle class="pt" cx="467.2" cy="340.9" r="3.88" opacity="0.54"/>
    <circle class="pt" cx="387.4" cy="438.7" r="3.29" opacity="0.70"/>
    <circle class="pt" cx="598.8" cy="493.4" r="2.75" opacity="0.79"/>
    <circle class="pt" cx="743.7" cy="433.0" r="2.82" opacity="0.81"/>
    <circle class="pt" cx="598.3" cy="426.5" r="3.68" opacity="0.70"/>
    <circle class="pt" cx="589.9" cy="347.5" r="2.27" opacity="0.61"/>
    <circle class="pt" cx="680.1" cy="477.5" r="2.64" opacity="0.78"/>
    <circle class="pt" cx="796.9" cy="386.8" r="2.33" opacity="0.66"/>
    <circle class="pt" cx="688.7" cy="460.0" r="4.05" opacity="0.61"/>
    <circle class="pt" cx="847.4" cy="446.9" r="2.46" opacity="0.43"/>
    <circle class="pt" cx="476.4" cy="439.8" r="3.75" opacity="0.55"/>
    <circle class="pt" cx="692.9" cy="294.5" r="3.79" opacity="0.61"/>
    <circle class="pt" cx="680.8" cy="357.2" r="4.30" opacity="0.65"/>
    <circle class="pt" cx="453.1" cy="305.4" r="2.60" opacity="0.79"/>
    <circle class="pt" cx="559.3" cy="269.5" r="3.64" opacity="0.59"/>
    <circle class="pt" cx="769.6" cy="310.0" r="4.25" opacity="0.53"/>
    <circle class="pt" cx="550.2" cy="386.9" r="3.25" opacity="0.47"/>
    <circle class="pt" cx="624.7" cy="357.4" r="3.87" opacity="0.79"/>
    <circle class="pt" cx="624.2" cy="352.0" r="3.59" opacity="0.80"/>
    <circle class="pt" cx="747.1" cy="241.2" r="4.27" opacity="0.47"/>
    <circle class="pt" cx="438.0" cy="478.0" r="3.95" opacity="0.45"/>
    <circle class="pt" cx="880.0" cy="440.5" r="4.19" opacity="0.67"/>
    <circle class="pt" cx="648.5" cy="452.5" r="2.16" opacity="0.77"/>
    <circle class="pt" cx="758.6" cy="397.8" r="3.18" opacity="0.58"/>
    <circle class="pt" cx="742.2" cy="403.0" r="2.12" opacity="0.46"/>
    <circle class="pt" cx="675.9" cy="444.7" r="3.87" opacity="0.43"/>
    <circle class="pt" cx="577.1" cy="371.1" r="2.73" opacity="0.57"/>
    <circle class="pt" cx="662.6" cy="428.3" r="4.09" opacity="0.44"/>
    <circle class="pt" cx="651.9" cy="315.5" r="2.06" opacity="0.50"/>
    <circle class="pt" cx="793.6" cy="354.9" r="4.25" opacity="0.76"/>
    <circle class="pt" cx="605.9" cy="404.0" r="2.37" opacity="0.61"/>
    <circle class="pt" cx="303.3" cy="409.7" r="3.00" opacity="0.53"/>
    <circle class="pt" cx="494.7" cy="337.3" r="3.60" opacity="0.51"/>
    <circle class="pt" cx="533.1" cy="304.4" r="3.53" opacity="0.70"/>
    <circle class="pt" cx="735.0" cy="399.7" r="3.11" opacity="0.58"/>
    <circle class="pt" cx="604.0" cy="442.2" r="3.60" opacity="0.82"/>
    <circle class="pt" cx="474.7" cy="328.9" r="3.75" opacity="0.70"/>
    <circle class="pt" cx="501.2" cy="410.5" r="2.87" opacity="0.64"/>
    <circle class="pt" cx="686.7" cy="342.0" r="2.88" opacity="0.61"/>
    <circle class="pt" cx="540.6" cy="511.2" r="2.12" opacity="0.48"/>
    <circle class="pt" cx="630.8" cy="595.1" r="2.11" opacity="0.46"/>
    <circle class="pt" cx="606.1" cy="385.1" r="2.45" opacity="0.45"/>
    <circle class="pt" cx="734.8" cy="413.9" r="3.62" opacity="0.54"/>
    <circle class="pt" cx="441.2" cy="384.7" r="3.40" opacity="0.74"/>
    <circle class="pt" cx="706.0" cy="404.5" r="3.67" opacity="0.67"/>
    <circle class="pt" cx="659.0" cy="452.5" r="3.04" opacity="0.54"/>
    <circle class="pt" cx="393.3" cy="496.6" r="2.89" opacity="0.46"/>
    <circle class="pt" cx="588.7" cy="261.9" r="3.55" opacity="0.50"/>
    <circle class="pt" cx="607.2" cy="330.1" r="3.44" opacity="0.48"/>
    <circle class="pt" cx="667.5" cy="402.8" r="4.15" opacity="0.76"/>
    <circle class="pt" cx="548.4" cy="345.6" r="4.29" opacity="0.45"/>
    <circle class="pt" cx="521.0" cy="415.5" r="3.06" opacity="0.72"/>
    <circle class="pt" cx="467.5" cy="320.7" r="3.81" opacity="0.58"/>
    <circle class="pt" cx="469.1" cy="317.5" r="3.50" opacity="0.79"/>
    <circle class="pt" cx="683.8" cy="420.5" r="3.81" opacity="0.61"/>
    <circle class="pt" cx="732.0" cy="427.6" r="3.59" opacity="0.56"/>
    <circle class="pt" cx="729.6" cy="327.8" r="2.78" opacity="0.71"/>
    <circle class="pt" cx="306.4" cy="457.3" r="4.02" opacity="0.47"/>
    <circle class="pt" cx="626.5" cy="285.3" r="3.67" opacity="0.42"/>
  </g>

  <!-- Vertex labels retained as part of the schematic figure -->
  <text class="label" x="585" y="54">e₁</text>
  <text class="coord" x="548" y="84">(1,0,...,0)</text>

  <text class="label" x="198" y="135">e₂</text>
  <text class="coord" x="147" y="171">(0,1,0,...,0)</text>

  <text class="label" x="170" y="646">e₃</text>
  <text class="coord" x="113" y="681">(0,0,1,...,0)</text>

  <text class="label" x="1052" y="315">e<tspan baseline-shift="sub" font-size="28">K</tspan></text>
  <text class="coord" x="1006" y="356">(0,0,...,0,1)</text>

  <text class="ellipsis" x="586" y="697">⋯</text>
</svg>
