<svg xmlns="http://www.w3.org/2000/svg" width="1700" height="860" viewBox="0 0 1700 860">
<rect width="100%" height="100%" fill="white"/>
<path d="M 330 380 L 330.00 150.00 A 230 230 0 0 1 496.90 538.25 Z" fill="#cb5c2a" stroke="white" stroke-width="3"/>
<path d="M 330 380 L 496.90 538.25 A 230 230 0 0 1 291.96 606.83 Z" fill="#d9822b" stroke="white" stroke-width="3"/>
<path d="M 330 380 L 291.96 606.83 A 230 230 0 0 1 134.45 501.08 Z" fill="#d8a31a" stroke="white" stroke-width="3"/>
<path d="M 330 380 L 134.45 501.08 A 230 230 0 0 1 107.91 320.20 Z" fill="#157a6e" stroke="white" stroke-width="3"/>
<path d="M 330 380 L 107.91 320.20 A 230 230 0 0 1 149.92 236.92 Z" fill="#2b8c7b" stroke="white" stroke-width="3"/>
<path d="M 330 380 L 149.92 236.92 A 230 230 0 0 1 199.14 190.86 Z" fill="#356fa6" stroke="white" stroke-width="3"/>
<path d="M 330 380 L 199.14 190.86 A 230 230 0 0 1 256.17 162.17 Z" fill="#4c5fb3" stroke="white" stroke-width="3"/>
<path d="M 330 380 L 256.17 162.17 A 230 230 0 0 1 297.62 152.29 Z" fill="#7c5fb8" stroke="white" stroke-width="3"/>
<path d="M 330 380 L 297.62 152.29 A 230 230 0 0 1 319.44 150.24 Z" fill="#b35f8f" stroke="white" stroke-width="3"/>
<path d="M 330 380 L 319.44 150.24 A 230 230 0 0 1 330.00 150.00 Z" fill="#8d6e63" stroke="white" stroke-width="3"/>
<circle cx="330" cy="380" r="132" fill="white" stroke="#e5e7eb" stroke-width="2"/>
<text x="330" y="370" text-anchor="middle" font-size="56" font-family="Arial, sans-serif" font-weight="700" fill="#1f2a2e">10</text>
<text x="330" y="410" text-anchor="middle" font-size="18" font-family="Arial, sans-serif" fill="#58646a">top-level topics</text>
<text x="70" y="64" font-size="32" font-family="Arial, sans-serif" font-weight="700" fill="#1f2a2e">Top-Level Share</text>
<circle cx="720" cy="120" r="9" fill="#cb5c2a"/>
<text x="744" y="126" font-size="18" font-family="Arial, sans-serif" fill="#1f2a2e">1. Quantum Error Correction</text>
<text x="744" y="150" font-size="18" font-family="Arial, sans-serif" fill="#1f2a2e">&amp; Fault-Tolerant Quantum</text>
<text x="1620" y="126" text-anchor="end" font-size="17" font-family="Arial, sans-serif" fill="#58646a">37.1%</text>
<circle cx="720" cy="190" r="9" fill="#d9822b"/>
<text x="744" y="196" font-size="18" font-family="Arial, sans-serif" fill="#1f2a2e">2. Quantum Information</text>
<text x="744" y="220" font-size="18" font-family="Arial, sans-serif" fill="#1f2a2e">Theory</text>
<text x="1620" y="196" text-anchor="end" font-size="17" font-family="Arial, sans-serif" fill="#58646a">15.6%</text>
<circle cx="720" cy="260" r="9" fill="#d8a31a"/>
<text x="744" y="266" font-size="18" font-family="Arial, sans-serif" fill="#1f2a2e">3. Many-Body, Condensed</text>
<text x="744" y="290" font-size="18" font-family="Arial, sans-serif" fill="#1f2a2e">Matter &amp; Open Quantum</text>
<text x="1620" y="266" text-anchor="end" font-size="17" font-family="Arial, sans-serif" fill="#58646a">13.5%</text>
<circle cx="720" cy="330" r="9" fill="#157a6e"/>
<text x="744" y="336" font-size="18" font-family="Arial, sans-serif" fill="#1f2a2e">4. Quantum Algorithms &amp;</text>
<text x="744" y="360" font-size="18" font-family="Arial, sans-serif" fill="#1f2a2e">Complexity Theory</text>
<text x="1620" y="336" text-anchor="end" font-size="17" font-family="Arial, sans-serif" fill="#58646a">13.0%</text>
<circle cx="720" cy="400" r="9" fill="#2b8c7b"/>
<text x="744" y="406" font-size="18" font-family="Arial, sans-serif" fill="#1f2a2e">5. Others</text>
<text x="1620" y="406" text-anchor="end" font-size="17" font-family="Arial, sans-serif" fill="#58646a">6.5%</text>
<circle cx="720" cy="470" r="9" fill="#356fa6"/>
<text x="744" y="476" font-size="18" font-family="Arial, sans-serif" fill="#1f2a2e">6. Quantum Machine Learning</text>
<text x="1620" y="476" text-anchor="end" font-size="17" font-family="Arial, sans-serif" fill="#58646a">4.7%</text>
<circle cx="720" cy="540" r="9" fill="#4c5fb3"/>
<text x="744" y="546" font-size="18" font-family="Arial, sans-serif" fill="#1f2a2e">7. Quantum Systems &amp;</text>
<text x="744" y="570" font-size="18" font-family="Arial, sans-serif" fill="#1f2a2e">Characterization</text>
<text x="1620" y="546" text-anchor="end" font-size="17" font-family="Arial, sans-serif" fill="#58646a">4.4%</text>
<circle cx="720" cy="610" r="9" fill="#7c5fb8"/>
<text x="744" y="616" font-size="18" font-family="Arial, sans-serif" fill="#1f2a2e">8. Quantum Simulation</text>
<text x="1620" y="616" text-anchor="end" font-size="17" font-family="Arial, sans-serif" fill="#58646a">3.0%</text>
<circle cx="720" cy="680" r="9" fill="#b35f8f"/>
<text x="744" y="686" font-size="18" font-family="Arial, sans-serif" fill="#1f2a2e">9. Quantum Communication &amp;</text>
<text x="744" y="710" font-size="18" font-family="Arial, sans-serif" fill="#1f2a2e">Cryptography</text>
<text x="1620" y="686" text-anchor="end" font-size="17" font-family="Arial, sans-serif" fill="#58646a">1.5%</text>
<circle cx="720" cy="750" r="9" fill="#8d6e63"/>
<text x="744" y="756" font-size="18" font-family="Arial, sans-serif" fill="#1f2a2e">10. Quantum Sensing &amp;</text>
<text x="744" y="780" font-size="18" font-family="Arial, sans-serif" fill="#1f2a2e">Metrology</text>
<text x="1620" y="756" text-anchor="end" font-size="17" font-family="Arial, sans-serif" fill="#58646a">0.7%</text>
</svg>