<svg xmlns="http://www.w3.org/2000/svg" viewBox="0 0 1600 1240"><rect width="1600" height="1240" fill="#ffffff" /><text x="50" y="44" font-size="34" font-weight="700" font-family="Arial, sans-serif" fill="#182838">2025 Quantum Topic Tree Overview</text><text x="50" y="72" font-size="16" font-family="Arial, sans-serif" fill="#5f6b76">Image-first summary of first-layer topics with second-layer and key third-layer heat.</text><rect x="50" y="100" width="730" height="320" rx="26" fill="#f6f9fc" stroke="#d9e1ea" /><rect x="50" y="100" width="10" height="320" rx="10" fill="#1f4b99" /><text x="74" y="134" font-size="24" font-weight="700" font-family="Arial, sans-serif" fill="#1f2f3f">量子錯誤校正與容錯量子計算</text><text x="74" y="158" font-size="13" font-family="Arial, sans-serif" fill="#5f6b76">Quantum Error Correction &amp; Fault-Tolerant Quantum Computing</text><text x="74" y="180" font-size="14" font-family="Arial, sans-serif" fill="#203040">weighted heat</text><rect x="74" y="186" width="260" height="18" rx="9" fill="#eaf0f6" /><rect x="74" y="186" width="260.0" height="18" rx="9" fill="#1f4b99" /><text x="344" y="201" font-size="13" font-family="Arial, sans-serif" fill="#415161">3900.2</text><text x="74" y="240" font-size="13" font-family="Arial, sans-serif" fill="#5f6b76">paper_count 316 · occurrence_count 1692</text><text x="74" y="272" font-size="15" font-family="Arial, sans-serif" fill="#25394d">Second-layer focus</text><text x="74" y="288" font-size="14" font-family="Arial, sans-serif" fill="#203040">量子錯誤校正</text><rect x="74" y="294" width="210" height="14" rx="9" fill="#eaf0f6" /><rect x="74" y="294" width="210.0" height="14" rx="9" fill="#1f4b99" /><text x="294" y="305" font-size="13" font-family="Arial, sans-serif" fill="#415161">2409.9</text><text x="90" y="326" font-size="12" font-family="Arial, sans-serif" fill="#5f6b76">解碼器與錯誤閾值 483 · 表面碼 423</text><text x="74" y="338" font-size="14" font-family="Arial, sans-serif" fill="#203040">容錯量子計算</text><rect x="74" y="344" width="210" height="14" rx="9" fill="#eaf0f6" /><rect x="74" y="344" width="129.9" height="14" rx="9" fill="#1f4b99" /><text x="294" y="355" font-size="13" font-family="Arial, sans-serif" fill="#415161">1490.3</text><text x="90" y="376" font-size="12" font-family="Arial, sans-serif" fill="#5f6b76">容錯閘操作 373 · 容錯架構與資源估算 264</text><rect x="820" y="100" width="730" height="320" rx="26" fill="#f6f9fc" stroke="#d9e1ea" /><rect x="820" y="100" width="10" height="320" rx="10" fill="#b85c38" /><text x="844" y="134" font-size="24" font-weight="700" font-family="Arial, sans-serif" fill="#1f2f3f">量子演算法與計算理論</text><text x="844" y="158" font-size="13" font-family="Arial, sans-serif" fill="#5f6b76">Quantum Algorithms &amp; Complexity Theory</text><text x="844" y="180" font-size="14" font-family="Arial, sans-serif" fill="#203040">weighted heat</text><rect x="844" y="186" width="260" height="18" rx="9" fill="#eaf0f6" /><rect x="844" y="186" width="90.6" height="18" rx="9" fill="#b85c38" /><text x="1114" y="201" font-size="13" font-family="Arial, sans-serif" fill="#415161">1358.7</text><text x="844" y="240" font-size="13" font-family="Arial, sans-serif" fill="#5f6b76">paper_count 219 · occurrence_count 463</text><text x="844" y="272" font-size="15" font-family="Arial, sans-serif" fill="#25394d">Second-layer focus</text><text x="844" y="288" font-size="14" font-family="Arial, sans-serif" fill="#203040">量子演算法</text><rect x="844" y="294" width="210" height="14" rx="9" fill="#eaf0f6" /><rect x="844" y="294" width="210.0" height="14" rx="9" fill="#b85c38" /><text x="1064" y="305" font-size="13" font-family="Arial, sans-serif" fill="#415161">1106.8</text><text x="860" y="326" font-size="12" font-family="Arial, sans-serif" fill="#5f6b76">量子優勢 351 · 量子傅立葉轉換 41</text><text x="844" y="338" font-size="14" font-family="Arial, sans-serif" fill="#203040">量子複雜性理論</text><rect x="844" y="344" width="210" height="14" rx="9" fill="#eaf0f6" /><rect x="844" y="344" width="47.8" height="14" rx="9" fill="#b85c38" /><text x="1064" y="355" font-size="13" font-family="Arial, sans-serif" fill="#415161">251.9</text><rect x="50" y="450" width="730" height="320" rx="26" fill="#f6f9fc" stroke="#d9e1ea" /><rect x="50" y="450" width="10" height="320" rx="10" fill="#2c7a7b" /><text x="74" y="484" font-size="24" font-weight="700" font-family="Arial, sans-serif" fill="#1f2f3f">量子模擬</text><text x="74" y="508" font-size="13" font-family="Arial, sans-serif" fill="#5f6b76">Quantum Simulation</text><text x="74" y="530" font-size="14" font-family="Arial, sans-serif" fill="#203040">weighted heat</text><rect x="74" y="536" width="260" height="18" rx="9" fill="#eaf0f6" /><rect x="74" y="536" width="20.7" height="18" rx="9" fill="#2c7a7b" /><text x="344" y="551" font-size="13" font-family="Arial, sans-serif" fill="#415161">310.7</text><text x="74" y="590" font-size="13" font-family="Arial, sans-serif" fill="#5f6b76">paper_count 59 · occurrence_count 80</text><text x="74" y="622" font-size="15" font-family="Arial, sans-serif" fill="#25394d">Second-layer focus</text><text x="74" y="638" font-size="14" font-family="Arial, sans-serif" fill="#203040">類比量子模擬</text><rect x="74" y="644" width="210" height="14" rx="9" fill="#eaf0f6" /><rect x="74" y="644" width="52.3" height="14" rx="9" fill="#2c7a7b" /><text x="294" y="655" font-size="13" font-family="Arial, sans-serif" fill="#415161">16.3</text><text x="74" y="682" font-size="14" font-family="Arial, sans-serif" fill="#203040">數位量子模擬</text><rect x="74" y="688" width="210" height="14" rx="9" fill="#eaf0f6" /><rect x="74" y="688" width="34.0" height="14" rx="9" fill="#2c7a7b" /><text x="294" y="699" font-size="13" font-family="Arial, sans-serif" fill="#415161">10.6</text><text x="74" y="726" font-size="14" font-family="Arial, sans-serif" fill="#203040">多體量子系統模擬</text><rect x="74" y="732" width="210" height="14" rx="9" fill="#eaf0f6" /><rect x="74" y="732" width="210.0" height="14" rx="9" fill="#2c7a7b" /><text x="294" y="743" font-size="13" font-family="Arial, sans-serif" fill="#415161">65.3</text><rect x="820" y="450" width="730" height="320" rx="26" fill="#f6f9fc" stroke="#d9e1ea" /><rect x="820" y="450" width="10" height="320" rx="10" fill="#6b5b95" /><text x="844" y="484" font-size="24" font-weight="700" font-family="Arial, sans-serif" fill="#1f2f3f">量子系統與表徵</text><text x="844" y="508" font-size="13" font-family="Arial, sans-serif" fill="#5f6b76">Quantum Systems &amp; Characterization</text><text x="844" y="530" font-size="14" font-family="Arial, sans-serif" fill="#203040">weighted heat</text><rect x="844" y="536" width="260" height="18" rx="9" fill="#eaf0f6" /><rect x="844" y="536" width="31.5" height="18" rx="9" fill="#6b5b95" /><text x="1114" y="551" font-size="13" font-family="Arial, sans-serif" fill="#415161">472.1</text><text x="844" y="590" font-size="13" font-family="Arial, sans-serif" fill="#5f6b76">paper_count 85 · occurrence_count 165</text><text x="844" y="622" font-size="15" font-family="Arial, sans-serif" fill="#25394d">Second-layer focus</text><text x="844" y="638" font-size="14" font-family="Arial, sans-serif" fill="#203040">量子系統架構</text><rect x="844" y="644" width="210" height="14" rx="9" fill="#eaf0f6" /><rect x="844" y="644" width="64.3" height="14" rx="9" fill="#6b5b95" /><text x="1064" y="655" font-size="13" font-family="Arial, sans-serif" fill="#415161">78.4</text><text x="844" y="682" font-size="14" font-family="Arial, sans-serif" fill="#203040">量子態層析</text><rect x="844" y="688" width="210" height="14" rx="9" fill="#eaf0f6" /><rect x="844" y="688" width="63.6" height="14" rx="9" fill="#6b5b95" /><text x="1064" y="699" font-size="13" font-family="Arial, sans-serif" fill="#415161">77.6</text><text x="844" y="726" font-size="14" font-family="Arial, sans-serif" fill="#203040">量子過程層析</text><rect x="844" y="732" width="210" height="14" rx="9" fill="#eaf0f6" /><rect x="844" y="732" width="28.6" height="14" rx="9" fill="#6b5b95" /><text x="1064" y="743" font-size="13" font-family="Arial, sans-serif" fill="#415161">34.9</text><text x="844" y="770" font-size="14" font-family="Arial, sans-serif" fill="#203040">基準測試與表徵</text><rect x="844" y="776" width="210" height="14" rx="9" fill="#eaf0f6" /><rect x="844" y="776" width="210.0" height="14" rx="9" fill="#6b5b95" /><text x="1064" y="787" font-size="13" font-family="Arial, sans-serif" fill="#415161">256.3</text><rect x="50" y="800" width="730" height="320" rx="26" fill="#f6f9fc" stroke="#d9e1ea" /><rect x="50" y="800" width="10" height="320" rx="10" fill="#6c8c2f" /><text x="74" y="834" font-size="24" font-weight="700" font-family="Arial, sans-serif" fill="#1f2f3f">量子機器學習</text><text x="74" y="858" font-size="13" font-family="Arial, sans-serif" fill="#5f6b76">Quantum Machine Learning</text><text x="74" y="880" font-size="14" font-family="Arial, sans-serif" fill="#203040">weighted heat</text><rect x="74" y="886" width="260" height="18" rx="9" fill="#eaf0f6" /><rect x="74" y="886" width="32.8" height="18" rx="9" fill="#6c8c2f" /><text x="344" y="901" font-size="13" font-family="Arial, sans-serif" fill="#415161">492.4</text><text x="74" y="940" font-size="13" font-family="Arial, sans-serif" fill="#5f6b76">paper_count 92 · occurrence_count 138</text><text x="74" y="972" font-size="15" font-family="Arial, sans-serif" fill="#25394d">Second-layer focus</text><text x="74" y="988" font-size="14" font-family="Arial, sans-serif" fill="#203040">量子資料編碼</text><rect x="74" y="994" width="210" height="14" rx="9" fill="#eaf0f6" /><rect x="74" y="994" width="210.0" height="14" rx="9" fill="#6c8c2f" /><text x="294" y="1005" font-size="13" font-family="Arial, sans-serif" fill="#415161">259.2</text><text x="74" y="1032" font-size="14" font-family="Arial, sans-serif" fill="#203040">變分量子機器學習</text><rect x="74" y="1038" width="210" height="14" rx="9" fill="#eaf0f6" /><rect x="74" y="1038" width="15.9" height="14" rx="9" fill="#6c8c2f" /><text x="294" y="1049" font-size="13" font-family="Arial, sans-serif" fill="#415161">19.6</text><text x="74" y="1076" font-size="14" font-family="Arial, sans-serif" fill="#203040">量子增強學習與生成模型</text><rect x="74" y="1082" width="210" height="14" rx="9" fill="#eaf0f6" /><rect x="74" y="1082" width="27.1" height="14" rx="9" fill="#6c8c2f" /><text x="294" y="1093" font-size="13" font-family="Arial, sans-serif" fill="#415161">33.5</text><rect x="820" y="800" width="730" height="320" rx="26" fill="#f6f9fc" stroke="#d9e1ea" /><rect x="820" y="800" width="10" height="320" rx="10" fill="#b08900" /><text x="844" y="834" font-size="24" font-weight="700" font-family="Arial, sans-serif" fill="#1f2f3f">量子感測與量子計量學</text><text x="844" y="858" font-size="13" font-family="Arial, sans-serif" fill="#5f6b76">Quantum Sensing &amp; Metrology</text><text x="844" y="880" font-size="14" font-family="Arial, sans-serif" fill="#203040">weighted heat</text><rect x="844" y="886" width="260" height="18" rx="9" fill="#eaf0f6" /><rect x="844" y="886" width="5.4" height="18" rx="9" fill="#b08900" /><text x="1114" y="901" font-size="13" font-family="Arial, sans-serif" fill="#415161">81.6</text><text x="844" y="940" font-size="13" font-family="Arial, sans-serif" fill="#5f6b76">paper_count 15 · occurrence_count 18</text><text x="844" y="972" font-size="15" font-family="Arial, sans-serif" fill="#25394d">Second-layer focus</text><text x="844" y="988" font-size="14" font-family="Arial, sans-serif" fill="#203040">量子計量學</text><rect x="844" y="994" width="210" height="14" rx="9" fill="#eaf0f6" /><rect x="844" y="994" width="210.0" height="14" rx="9" fill="#b08900" /><text x="1064" y="1005" font-size="13" font-family="Arial, sans-serif" fill="#415161">56.0</text><text x="844" y="1032" font-size="14" font-family="Arial, sans-serif" fill="#203040">量子感測</text><rect x="844" y="1038" width="210" height="14" rx="9" fill="#eaf0f6" /><rect x="844" y="1038" width="79.3" height="14" rx="9" fill="#b08900" /><text x="1064" y="1049" font-size="13" font-family="Arial, sans-serif" fill="#415161">21.1</text><text x="844" y="1076" font-size="14" font-family="Arial, sans-serif" fill="#203040">精密測量與參數估計</text><rect x="844" y="1082" width="210" height="14" rx="9" fill="#eaf0f6" /><rect x="844" y="1082" width="17.0" height="14" rx="9" fill="#b08900" /><text x="1064" y="1093" font-size="13" font-family="Arial, sans-serif" fill="#415161">4.5</text><rect x="50" y="1150" width="730" height="320" rx="26" fill="#f6f9fc" stroke="#d9e1ea" /><rect x="50" y="1150" width="10" height="320" rx="10" fill="#1f4b99" /><text x="74" y="1184" font-size="24" font-weight="700" font-family="Arial, sans-serif" fill="#1f2f3f">量子資訊理論</text><text x="74" y="1208" font-size="13" font-family="Arial, sans-serif" fill="#5f6b76">Quantum Information Theory</text><text x="74" y="1230" font-size="14" font-family="Arial, sans-serif" fill="#203040">weighted heat</text><rect x="74" y="1236" width="260" height="18" rx="9" fill="#eaf0f6" /><rect x="74" y="1236" width="109.2" height="18" rx="9" fill="#1f4b99" /><text x="344" y="1251" font-size="13" font-family="Arial, sans-serif" fill="#415161">1637.6</text><text x="74" y="1290" font-size="13" font-family="Arial, sans-serif" fill="#5f6b76">paper_count 180 · occurrence_count 811</text><text x="74" y="1322" font-size="15" font-family="Arial, sans-serif" fill="#25394d">Second-layer focus</text><text x="74" y="1338" font-size="14" font-family="Arial, sans-serif" fill="#203040">量子通道與容量</text><rect x="74" y="1344" width="210" height="14" rx="9" fill="#eaf0f6" /><rect x="74" y="1344" width="65.5" height="14" rx="9" fill="#1f4b99" /><text x="294" y="1355" font-size="13" font-family="Arial, sans-serif" fill="#415161">162.3</text><text x="74" y="1382" font-size="14" font-family="Arial, sans-serif" fill="#203040">糾纏與資源理論</text><rect x="74" y="1388" width="210" height="14" rx="9" fill="#eaf0f6" /><rect x="74" y="1388" width="210.0" height="14" rx="9" fill="#1f4b99" /><text x="294" y="1399" font-size="13" font-family="Arial, sans-serif" fill="#415161">520.2</text><text x="74" y="1426" font-size="14" font-family="Arial, sans-serif" fill="#203040">量子態與可區分性</text><rect x="74" y="1432" width="210" height="14" rx="9" fill="#eaf0f6" /><rect x="74" y="1432" width="73.0" height="14" rx="9" fill="#1f4b99" /><text x="294" y="1443" font-size="13" font-family="Arial, sans-serif" fill="#415161">180.9</text><rect x="820" y="1150" width="730" height="320" rx="26" fill="#f6f9fc" stroke="#d9e1ea" /><rect x="820" y="1150" width="10" height="320" rx="10" fill="#1f4b99" /><text x="844" y="1184" font-size="24" font-weight="700" font-family="Arial, sans-serif" fill="#1f2f3f">量子通訊與量子密碼</text><text x="844" y="1208" font-size="13" font-family="Arial, sans-serif" fill="#5f6b76">Quantum Communication &amp; Cryptography</text><text x="844" y="1230" font-size="14" font-family="Arial, sans-serif" fill="#203040">weighted heat</text><rect x="844" y="1236" width="260" height="18" rx="9" fill="#eaf0f6" /><rect x="844" y="1236" width="11.0" height="18" rx="9" fill="#1f4b99" /><text x="1114" y="1251" font-size="13" font-family="Arial, sans-serif" fill="#415161">165.6</text><text x="844" y="1290" font-size="13" font-family="Arial, sans-serif" fill="#5f6b76">paper_count 18 · occurrence_count 77</text><text x="844" y="1322" font-size="15" font-family="Arial, sans-serif" fill="#25394d">Second-layer focus</text><text x="844" y="1338" font-size="14" font-family="Arial, sans-serif" fill="#203040">量子金鑰分發</text><rect x="844" y="1344" width="210" height="14" rx="9" fill="#eaf0f6" /><rect x="844" y="1344" width="0.0" height="14" rx="9" fill="#1f4b99" /><text x="1064" y="1355" font-size="13" font-family="Arial, sans-serif" fill="#415161">0.0</text><text x="844" y="1382" font-size="14" font-family="Arial, sans-serif" fill="#203040">量子網路與中繼器</text><rect x="844" y="1388" width="210" height="14" rx="9" fill="#eaf0f6" /><rect x="844" y="1388" width="82.6" height="14" rx="9" fill="#1f4b99" /><text x="1064" y="1399" font-size="13" font-family="Arial, sans-serif" fill="#415161">21.4</text><text x="844" y="1426" font-size="14" font-family="Arial, sans-serif" fill="#203040">量子通訊複雜度與密碼</text><rect x="844" y="1432" width="210" height="14" rx="9" fill="#eaf0f6" /><rect x="844" y="1432" width="210.0" height="14" rx="9" fill="#1f4b99" /><text x="1064" y="1443" font-size="13" font-family="Arial, sans-serif" fill="#415161">54.4</text><rect x="50" y="1500" width="730" height="320" rx="26" fill="#f6f9fc" stroke="#d9e1ea" /><rect x="50" y="1500" width="10" height="320" rx="10" fill="#1f4b99" /><text x="74" y="1534" font-size="24" font-weight="700" font-family="Arial, sans-serif" fill="#1f2f3f">量子多體、凝態與開放系統</text><text x="74" y="1558" font-size="13" font-family="Arial, sans-serif" fill="#5f6b76">Many-Body, Condensed Matter &amp; Open Quantum Systems</text><text x="74" y="1580" font-size="14" font-family="Arial, sans-serif" fill="#203040">weighted heat</text><rect x="74" y="1586" width="260" height="18" rx="9" fill="#eaf0f6" /><rect x="74" y="1586" width="94.9" height="18" rx="9" fill="#1f4b99" /><text x="344" y="1601" font-size="13" font-family="Arial, sans-serif" fill="#415161">1423.5</text><text x="74" y="1640" font-size="13" font-family="Arial, sans-serif" fill="#5f6b76">paper_count 133 · occurrence_count 534</text><text x="74" y="1672" font-size="15" font-family="Arial, sans-serif" fill="#25394d">Second-layer focus</text><text x="74" y="1688" font-size="14" font-family="Arial, sans-serif" fill="#203040">多體與凝態主題</text><rect x="74" y="1694" width="210" height="14" rx="9" fill="#eaf0f6" /><rect x="74" y="1694" width="210.0" height="14" rx="9" fill="#1f4b99" /><text x="294" y="1705" font-size="13" font-family="Arial, sans-serif" fill="#415161">532.7</text><text x="74" y="1732" font-size="14" font-family="Arial, sans-serif" fill="#203040">開放量子系統與耗散</text><rect x="74" y="1738" width="210" height="14" rx="9" fill="#eaf0f6" /><rect x="74" y="1738" width="44.7" height="14" rx="9" fill="#1f4b99" /><text x="294" y="1749" font-size="13" font-family="Arial, sans-serif" fill="#415161">113.4</text><text x="74" y="1776" font-size="14" font-family="Arial, sans-serif" fill="#203040">量子熱力學與動力學</text><rect x="74" y="1782" width="210" height="14" rx="9" fill="#eaf0f6" /><rect x="74" y="1782" width="43.7" height="14" rx="9" fill="#1f4b99" /><text x="294" y="1793" font-size="13" font-family="Arial, sans-serif" fill="#415161">110.8</text><rect x="820" y="1500" width="730" height="320" rx="26" fill="#f6f9fc" stroke="#d9e1ea" /><rect x="820" y="1500" width="10" height="320" rx="10" fill="#1f4b99" /><text x="844" y="1534" font-size="24" font-weight="700" font-family="Arial, sans-serif" fill="#1f2f3f">其他熱門主題</text><text x="844" y="1558" font-size="13" font-family="Arial, sans-serif" fill="#5f6b76">Others</text><text x="844" y="1580" font-size="14" font-family="Arial, sans-serif" fill="#203040">weighted heat</text><rect x="844" y="1586" width="260" height="18" rx="9" fill="#eaf0f6" /><rect x="844" y="1586" width="45.6" height="18" rx="9" fill="#1f4b99" /><text x="1114" y="1601" font-size="13" font-family="Arial, sans-serif" fill="#415161">683.8</text><text x="844" y="1640" font-size="13" font-family="Arial, sans-serif" fill="#5f6b76">paper_count 138 · occurrence_count 0</text></svg>